PathFileType	4	(X/Y/Z)	/home/abdul/Desktop/myosuite/custom_workspace/IK/output/S11_12_3.trc
DataRate	CameraRate	NumFrames	NumMarkers	Units	OrigDataRate	OrigDataStartFrame	OrigNumFrames
200.0	200.0	67	3	mm	200.0	495	1976
Frame#	Time	V_Shoulder			V_Elbow			V_Wrist		
		X1	Y1	Z1	X2	Y2	Z2	X3	Y3	Z3

495	2.47	-91.46906591099956	542.6545070700655	277.57786150585156	-244.122320063884	366.0800205503467	30.372405994678946	-90.69971136621882	162.5543244331227	84.43669825932638
496	2.475	-91.4958881688121	542.4687046646235	277.5967714604773	-244.07631975074582	365.9052459853731	30.44072750425896	-90.33634101933978	162.50515245397793	84.63371502487632
497	2.48	-91.52257897131572	542.2821472716583	277.61321339254795	-244.02989382281822	365.7326219710098	30.50351400753386	-89.97881905163109	162.4523249369491	84.81421213953018
498	2.485	-91.54912494080888	542.0949074095201	277.6271272904191	-243.98310244035542	365.5623312323901	30.560607689023882	-89.62753111674684	162.39586375019562	84.97790098995057
499	2.49	-91.57551220502774	541.9070584568825	277.6384591680376	-243.93600802605766	365.3945511748839	30.61186528987095	-89.28285335695459	162.33579685149564	85.12453180515482
500	2.495	-91.60172636758908	541.7186746719076	277.64716125883234	-243.88867511926958	365.2294534278026	30.657158709429353	-88.94515143874477	162.2721583418756	85.25389469280435
501	2.5	-91.62775248210771	541.5298312076848	277.6531921902464	-243.8411702168833	365.0672034064472	30.69637554968393	-88.6147796130169	162.20498849623385	85.36582053694582
502	2.505	-91.65357503026416	541.3406041236182	277.65651713812963	-243.79356160145073	364.90795989456575	30.729419599264176	-88.29207980361178	162.13433377083518	85.46018175188583
503	2.51	-91.6791779040808	541.1510703924743	277.6571079602902	-243.74591915710812	364.75187464920134	30.75621125412905	-87.97738072784466	162.06024678771126	85.5368928875381
504	2.515	-91.70454439264506	540.9613079028176	277.6549433085837	-243.69831417400923	364.5990920298092	30.776687872326068	-87.6709970525578	161.98278629615794	85.59591108227653
505	2.52	-91.72965717349751	540.7713954565974	277.6500087190031	-243.65081914205717	364.4497486534051	30.79080406057909	-87.37322858905694	161.90201711167686	85.6372363600575
506	2.525	-91.75449830887992	540.5814127616717	277.64229667932364	-243.60350753481168	364.30397307738235	30.798531890827626	-87.0843595301219	161.8180100328571	85.66091176933456
507	2.53	-91.77904924701443	540.391440419092	277.63180667394454	-243.5564535845325	364.1618855114885	30.799861045226134	-86.8046577320911	161.73084173683765	85.667023362073
508	2.535	-91.80329082855991	540.201559904997	277.6185452056629	-243.509732049396	364.0235975603092	30.79479888850961	-86.53437404481457	161.64059465412723	85.65570001197742
509	2.54	-91.82720329836495	540.0118535470024	277.60252579421154	-243.46341797399617	363.8892119974383	30.78337046704071	-86.27374169204973	161.54735682368715	85.62711307186488
510	2.545	-91.85076632260972	539.8224044950031	277.5837689514877	-243.417586444302	363.75882257234775	30.76561843426946	-86.02297570464381	161.45122172929973	85.58147587094521
511	2.55	-91.87395901140042	539.6332966863416	277.56230213349323	-243.37231233830408	363.63251385079354	30.741602902756732	-85.782272408604	161.35228811835157	85.5190430536023
512	2.555	-91.89675994685119	539.4446148053263	277.53815966911077	-243.3276700736285	363.51036108940724	30.711401223333503	-85.55180896990744	161.25065980425515	85.44010976210072
513	2.56	-91.91914721665843	539.256444237123	277.5113826659291	-243.2837333534374	363.39243014494053	30.67510769238677	-85.33174299764588	161.14644545381387	85.34501066646243
514	2.565	-91.9410984531429	539.0688710160697	277.4820188934341	-243.24057491196663	363.2787774184333	30.63283318867602	-85.1222122068389	161.039758360902	85.23411884556683
515	2.57	-91.9625908777042	538.8819817685077	277.45012264397275	-243.19826626107107	363.16944983438725	30.58470474148868	-84.92333414198586	160.93071620788484	85.10784452431275
516	2.575	-91.9836013506024	538.6958636502461	277.41575457199184	-243.156877439161	363.0644848548327	30.530865032335356	-84.73520596216127	160.8194408162411	84.96663367244345
517	2.58	-92.00410642595106	538.5106042788143	277.3789815121461	-243.11647676391237	362.96391052798595	30.471471832763633	-84.55790428819431	160.7060578878739	84.81096647136332
518	2.585	-92.02408241177581	538.3262916606872	277.33987627695643	-243.07713059012696	362.86774557100415	30.406697381228856	-84.3914851122112	160.5906967386044	84.64135565596833
519	2.59	-92.04350543496382	538.1430141136964	277.2985174347871	-243.0389030740979	362.77599948616455	30.336727702299946	-84.23598376956133	160.47349002533588	84.45834473916159
520	2.595	-92.06235151089955	537.9608601848705	277.25498906899173	-243.00185594581006	362.68867270961175	30.261761871794548	-84.09141497289511	160.3545734683553	84.26250612732846
521	2.6	-92.08059661755549	537.7799185639751	277.20938051915635	-242.9660482902624	362.60575679165015	30.182011231728637	-83.95777290791658	160.23408557020628	84.05443913559753
522	2.605	-92.09821677377795	537.6002779930457	277.16178610544085	-242.93153633915603	362.52723460739355	30.0976985592294	-83.83503139009586	160.1121673325185	83.83476791220951
523	2.61	-92.1151881214836	537.4220271722324	277.1123048370917	-242.89837327413073	362.4530805964332	30.00905719379389	-83.72314408139805	159.98896197212247	83.60413928175339
524	2.615	-92.13148701145622	537.2452546622967	277.0610401062607	-242.8666090426707	362.3832610300401	29.916330127479263	-83.62204476586737	159.86461463770658	83.36322051740548
525	2.62	-92.14709009241143	537.0700487841152	277.0080993683237	-242.83629018772308	362.31773430429183	29.81976906278092	-83.53164768269791	159.73927212819683	83.11269705261691
526	2.625	-92.1619744029746	536.8964975155701	276.9535938099476	-242.80745969199575	362.25645125739226	29.719633443092427	-83.451847915227	159.61308261395067	82.85327014294063
527	2.63	-92.17611746619724	536.7246883862125	276.8976380061997	-242.7801568378094	362.19935550935134	29.616189460744277	-83.38252183410407	159.48619536176403	82.58565448886603
528	2.635	-92.18949738621984	536.5547083701017	276.84034956803515	-242.75441708328805	362.1463838221009	29.509709047687792	-83.32352759271728	159.3587604645905	82.31057583063784
529	2.64	-92.20209294667258	536.3866437772301	276.7818487815321	-242.73027195557108	362.09746647804707	29.400468853924462	-83.27470567280322	159.23092857676966	82.02876852607622
530	2.645	-92.21388371039124	536.2205801439532	276.72225824027487	-242.7077489616288	362.0525276749987	29.288749218781362	-83.23587947801954	159.10285065545585	81.740973122387
531	2.65	-92.22485012001435	536.0566021228458	276.66170247230133	-242.68687151715397	362.01148593536607	29.174833140099423	-83.20685597313057	158.97467770883225	81.44793393285684
532	2.655	-92.23497359901724	535.8947933724098	276.6003075630537	-242.66765889389507	361.9742545274932	29.05900524633448	-83.18742636633687	158.84656055159	81.15039662916625
533	2.66	-92.24423665273235	535.7352364470553	276.5382007757706	-242.65012618568403	361.9407418969721	28.94155077647241	-83.17736683217497	158.7186495680491	80.84910585983056
534	2.665	-92.25262296889862	535.5780126877771	276.4755101707676	-242.6342842933002	361.9108521057841	28.822754572530478	-83.17643927232088	158.59109448319572	80.54480290499421
535	2.67	-92.26011751728201	535.4232021139414	276.4123642250439	-242.6201399281992	361.884485277128	28.70290008925874	-83.18439211155048	158.46404414181646	80.23822337746138
536	2.675	-92.26670664790733	535.2708833165883	276.3488914536396	-242.60769563502566	361.86153804382286	28.582268425470275	-83.20096112604196	158.33764629581822	79.9300949794498
537	2.68	-92.2723781874448	535.1211333536469	276.2852200341545	-242.596949832718	361.84190399820943	28.461137381218595	-83.22587030114768	158.21204739973953	79.62113532410831
538	2.685	-92.27712153329837	534.9740276474489	276.2214774358082	-242.58789687390754	361.8254741415298	28.33978054480778	-83.25883271571715	158.0873924143811	79.31204983034661
539	2.69	-92.28092774495065	534.8296398849081	276.15779005439464	-242.5805271222099	361.8121373308267	28.21846641336726	-83.2995514500159	157.9638246184154	79.00352969899203
540	2.695	-92.28378963212754	534.6880419207201	276.0942828544452	-242.57482704690813	361.80178072147794	28.09745755045208	-83.34772051425949	157.84148542777436	78.69624997771888
541	2.7	-92.28570183935715	534.5493036839174	276.0310790198718	-242.57077933443077	361.7942902035653	27.977009783843013	-83.40302579476361	157.72051422256257	78.39086772159388
542	2.705	-92.28666092651152	534.4134930880934	275.96829961431223	-242.56836301593887	361.78955083036874	27.857371446421823	-83.46514601470244	157.6010481812005	78.08802025545447
543	2.71	-92.28666544493463	534.2806759455908	275.90606325235	-242.56755361025182	361.7874472373738	27.73878266268828	-83.53375370646664	157.48322212146866	77.78832354368743
544	2.715	-92.28571600877756	534.150915885922	275.8444857827166	-242.5683232812633	361.787864050288	27.621474683169357	-83.60851619261767	157.36716834809963	77.49237067231121
545	2.72	-92.28381536118142	534.0242742786695	275.78367998452853	-242.5706410089283	361.7906862806691	27.505669268651083	-83.68909657244828	157.25301650654802	77.20073044758936
546	2.725	-92.28096843496894	533.9008101610875	275.72375527753843	-242.5744727728361	361.79579970788166	27.3915781258411	-83.77515471117805	157.14089344256212	76.91394611472123
547	2.73	-92.2771824075283	533.7805801705982	275.6648174473136	-242.5797817473279	361.8030912462152	27.279402395748974	-83.86634822883715	157.03092306718128	76.632534199474
548	2.735	-92.27246674959694	533.6636384823529	275.60696838617827	-242.58652850706596	361.8124492961124	27.169332195753036	-83.96233348592196	156.92322622679245	76.35698347494154
549	2.74	-92.26683326767791	533.5500367519978	275.55030585068204	-242.5946712419199	361.82376407857373	27.06154621601024	-84.06276656294025	156.81792057789303	76.08775405494532
550	2.745	-92.26029613984775	533.4398240637597	275.49492323627555	-242.60416597999875	361.8369279519226	26.956211370560595	-84.1673042310046	156.71512046623113	75.82527661493395
551	2.75	-92.25287194474164	533.3330468839349	275.44090936979563	-242.61496681762912	361.8518357102265	26.85348250318269	-84.27560491067513	156.61493681001994	75.56995174059684
552	2.755	-92.24457968353055	533.2297490198431	275.3883483202781	-242.62702615506032	361.86838486278725	26.75350214777315	-84.38732961630241	156.51747698695664	75.32214940378466
553	2.76	-92.23544079473209	533.1299715842734	275.33731922853286	-242.64029493666226	361.886475894216	26.656400342752477	-84.50214288317264	156.42284472481163	75.08220856473021
554	2.765	-92.22547916172745	533.0337529654297	275.28789615583275	-242.65472289437503	361.9060125047205	26.562294498743277	-84.61971367481414	156.33113999539427	74.85043689898907
555	2.77	-92.21472111288479	532.941128802348	275.2401479519826	-242.67025879317077	361.9269018303258	26.471289318526743	-84.73971626788469	156.24245891174334	74.62711064697444
556	2.775	-92.20319541421954	532.852131965742	275.19413814294967	-242.68685067729314	361.94905464285114	26.38347676805916	-84.86183111212372	156.15689362843386	74.41247458344412
557	2.78	-92.19093325455144	532.7667925441975	275.1499248381548	-242.7044461160542	361.97238552955133	26.29893609712365	-84.98574566292235	156.07453224493725	74.20674210381466
558	2.785	-92.17796822314676	532.6851378356208	275.10756065743976	-242.72299244798722	361.99681305241825	26.21773390800361	-85.11115518413787	155.99545871201536	74.01009542372614
559	2.79	-92.16433627986378	532.6071923438179	275.06709267764563	-242.74243702217848	362.022259887215	26.139924270393728	-85.23776351885641	155.91975274117473	73.82268588786508
560	2.795	-92.15007571784696	532.5329777800612	275.0285623986576	-242.7627274356314	362.04865294238846	26.065548880612134	-85.36528382589125	155.84748971724855	73.64463438367132
561	2.8	-92.13522711884416	532.4625130694799	274.9920057286943	-242.78381176555172	362.0759234580741	25.99463726304324	-85.49343927989135	155.77874061421568	73.47603185520745
